# xmcd CD database file
#
# Track frame offsets:
#	150
#	18025
#	36337
#
# Disc length: 722 seconds
#
# Revision: 0
# Processed by: cddbd v1.5PL3 Copyright (c) Steve Scherf et al.
# Submitted via: CDex 1.50beta9
#
DISCID=1802d003
DTITLE=児島未散 - ジプシー
DYEAR=1990
DGENRE=J-POP
TTITLE0=ジプシー
TTITLE1=季節の終りに
TTITLE2=ジプシー　カラオケ
EXTD=YEAR: 1990
EXTT0=
EXTT1=
EXTT2=
PLAYORDER=
